<?xml version="1.0" encoding="UTF-8" standalone="no"?>
<!-- Created with Inkscape (http://www.inkscape.org/) -->

<svg
   xmlns:dc="http://purl.org/dc/elements/1.1/"
   xmlns:cc="http://creativecommons.org/ns#"
   xmlns:rdf="http://www.w3.org/1999/02/22-rdf-syntax-ns#"
   xmlns:svg="http://www.w3.org/2000/svg"
   xmlns="http://www.w3.org/2000/svg"
   xmlns:xlink="http://www.w3.org/1999/xlink"
   xmlns:sodipodi="http://sodipodi.sourceforge.net/DTD/sodipodi-0.dtd"
   xmlns:inkscape="http://www.inkscape.org/namespaces/inkscape"
   width="1109.24"
   height="522.59003"
   id="svg2"
   version="1.1"
   inkscape:version="0.47 r22583"
   sodipodi:docname="ISSMlogo.pdf">
  <defs
     id="defs4">
    <linearGradient
       id="linearGradient3808">
      <stop
         style="stop-color:#5785d1;stop-opacity:0.70731705;"
         offset="0"
         id="stop3810" />
      <stop
         id="stop3834"
         offset="0.5"
         style="stop-color:#5785d1;stop-opacity:0.09756097;" />
      <stop
         style="stop-color:#5785d1;stop-opacity:0;"
         offset="1"
         id="stop3812" />
    </linearGradient>
    <linearGradient
       id="linearGradient3674">
      <stop
         style="stop-color:#5785d1;stop-opacity:1;"
         offset="0"
         id="stop3676" />
      <stop
         id="stop3688"
         offset="0.25581396"
         style="stop-color:#5785d1;stop-opacity:0.2682927;" />
      <stop
         style="stop-color:#5785d1;stop-opacity:0;"
         offset="1"
         id="stop3678" />
    </linearGradient>
    <linearGradient
       id="linearGradient4451">
      <stop
         style="stop-color:#ffffff;stop-opacity:1;"
         offset="0"
         id="stop4453" />
      <stop
         id="stop4459"
         offset="0.25581396"
         style="stop-color:#ffffff;stop-opacity:1;" />
      <stop
         style="stop-color:#cfcfcf;stop-opacity:1;"
         offset="1"
         id="stop4455" />
    </linearGradient>
    <linearGradient
       id="linearGradient3785">
      <stop
         style="stop-color:#0000bf;stop-opacity:1;"
         offset="0"
         id="stop3787" />
      <stop
         style="stop-color:#0000ec;stop-opacity:1;"
         offset="1"
         id="stop3789" />
    </linearGradient>
    <inkscape:perspective
       sodipodi:type="inkscape:persp3d"
       inkscape:vp_x="0 : 526.18109 : 1"
       inkscape:vp_y="0 : 1000 : 0"
       inkscape:vp_z="744.09448 : 526.18109 : 1"
       inkscape:persp3d-origin="372.04724 : 350.78739 : 1"
       id="perspective10" />
    <inkscape:perspective
       id="perspective2920"
       inkscape:persp3d-origin="0.5 : 0.33333333 : 1"
       inkscape:vp_z="1 : 0.5 : 1"
       inkscape:vp_y="0 : 1000 : 0"
       inkscape:vp_x="0 : 0.5 : 1"
       sodipodi:type="inkscape:persp3d" />
    <linearGradient
       inkscape:collect="always"
       xlink:href="#linearGradient3785"
       id="linearGradient3795"
       x1="-75.983749"
       y1="506.68976"
       x2="802.01624"
       y2="506.68976"
       gradientUnits="userSpaceOnUse" />
    <linearGradient
       y2="274.99326"
       x2="523.98376"
       y1="274.99326"
       x1="181.2"
       gradientUnits="userSpaceOnUse"
       id="linearGradient4214"
       xlink:href="#linearGradient3652"
       inkscape:collect="always" />
    <linearGradient
       y2="227.53226"
       x2="466.09839"
       y1="323.2684"
       x1="466.09839"
       gradientUnits="userSpaceOnUse"
       id="linearGradient4212"
       xlink:href="#linearGradient3652"
       inkscape:collect="always" />
    <linearGradient
       y2="225.71655"
       x2="361.5654"
       y1="324.21271"
       x1="361.5654"
       gradientUnits="userSpaceOnUse"
       id="linearGradient4210"
       xlink:href="#linearGradient3652"
       inkscape:collect="always" />
    <linearGradient
       y2="225.71655"
       x2="270.15915"
       y1="324.21271"
       x1="270.15915"
       gradientUnits="userSpaceOnUse"
       id="linearGradient4208"
       xlink:href="#linearGradient3652"
       inkscape:collect="always" />
    <linearGradient
       y2="227.35905"
       x2="202.11981"
       y1="322.81427"
       x1="202.11981"
       gradientUnits="userSpaceOnUse"
       id="linearGradient4206"
       xlink:href="#linearGradient3652"
       inkscape:collect="always" />
    <inkscape:perspective
       sodipodi:type="inkscape:persp3d"
       inkscape:vp_x="0 : 0.5 : 1"
       inkscape:vp_y="0 : 1000 : 0"
       inkscape:vp_z="1 : 0.5 : 1"
       inkscape:persp3d-origin="0.5 : 0.33333333 : 1"
       id="perspective4168" />
    <linearGradient
       y2="274.99326"
       x2="523.98376"
       y1="274.99326"
       x1="181.2"
       gradientUnits="userSpaceOnUse"
       id="linearGradient4056"
       xlink:href="#linearGradient3652"
       inkscape:collect="always" />
    <linearGradient
       y2="227.53226"
       x2="466.09839"
       y1="323.2684"
       x1="466.09839"
       gradientUnits="userSpaceOnUse"
       id="linearGradient4054"
       xlink:href="#linearGradient3652"
       inkscape:collect="always" />
    <linearGradient
       y2="225.71655"
       x2="361.5654"
       y1="324.21271"
       x1="361.5654"
       gradientUnits="userSpaceOnUse"
       id="linearGradient4052"
       xlink:href="#linearGradient3652"
       inkscape:collect="always" />
    <linearGradient
       y2="225.71655"
       x2="270.15915"
       y1="324.21271"
       x1="270.15915"
       gradientUnits="userSpaceOnUse"
       id="linearGradient4050"
       xlink:href="#linearGradient3652"
       inkscape:collect="always" />
    <linearGradient
       y2="227.35905"
       x2="202.11981"
       y1="322.81427"
       x1="202.11981"
       gradientUnits="userSpaceOnUse"
       id="linearGradient4048"
       xlink:href="#linearGradient3652"
       inkscape:collect="always" />
    <linearGradient
       y2="274.99326"
       x2="523.98376"
       y1="274.99326"
       x1="181.2"
       gradientUnits="userSpaceOnUse"
       id="linearGradient3953"
       xlink:href="#linearGradient3652"
       inkscape:collect="always" />
    <linearGradient
       y2="274.99326"
       x2="523.98376"
       y1="274.99326"
       x1="181.2"
       gradientUnits="userSpaceOnUse"
       id="linearGradient3853"
       xlink:href="#linearGradient3652"
       inkscape:collect="always" />
    <marker
       inkscape:stockid="Arrow1Lstart"
       orient="auto"
       refY="0"
       refX="0"
       id="Arrow1Lstart"
       style="overflow:visible">
      <path
         id="path3675"
         d="M 0,0 5,-5 -12.5,0 5,5 0,0 z"
         style="fill-rule:evenodd;stroke:#000000;stroke-width:1pt;marker-start:none"
         transform="matrix(0.8,0,0,0.8,10,0)" />
    </marker>
    <linearGradient
       id="linearGradient3652">
      <stop
         id="stop3654"
         offset="0"
         style="stop-color:#2e5b90;stop-opacity:1;" />
      <stop
         style="stop-color:#2e5b90;stop-opacity:1;"
         offset="0.49000001"
         id="stop4935" />
      <stop
         id="stop4937"
         offset="0.52999997"
         style="stop-color:#7293c9;stop-opacity:1;" />
      <stop
         id="stop3656"
         offset="1"
         style="stop-color:#7293c9;stop-opacity:1;" />
    </linearGradient>
    <inkscape:perspective
       sodipodi:type="inkscape:persp3d"
       inkscape:vp_x="0 : 526.18109 : 1"
       inkscape:vp_y="0 : 1000 : 0"
       inkscape:vp_z="744.09448 : 526.18109 : 1"
       inkscape:persp3d-origin="372.04724 : 350.78739 : 1"
       id="perspective10-7" />
    <linearGradient
       inkscape:collect="always"
       xlink:href="#linearGradient3652"
       id="linearGradient3650"
       x1="181.2"
       y1="274.99326"
       x2="523.98376"
       y2="274.99326"
       gradientUnits="userSpaceOnUse" />
    <linearGradient
       inkscape:collect="always"
       xlink:href="#linearGradient3652"
       id="linearGradient4725"
       gradientUnits="userSpaceOnUse"
       x1="181.2"
       y1="274.99326"
       x2="523.98376"
       y2="274.99326" />
    <inkscape:perspective
       id="perspective5025"
       inkscape:persp3d-origin="0.5 : 0.33333333 : 1"
       inkscape:vp_z="1 : 0.5 : 1"
       inkscape:vp_y="0 : 1000 : 0"
       inkscape:vp_x="0 : 0.5 : 1"
       sodipodi:type="inkscape:persp3d" />
    <linearGradient
       inkscape:collect="always"
       xlink:href="#linearGradient3652"
       id="linearGradient4180"
       gradientUnits="userSpaceOnUse"
       x1="181.2"
       y1="274.99326"
       x2="523.98376"
       y2="274.99326" />
    <inkscape:perspective
       id="perspective4420"
       inkscape:persp3d-origin="0.5 : 0.33333333 : 1"
       inkscape:vp_z="1 : 0.5 : 1"
       inkscape:vp_y="0 : 1000 : 0"
       inkscape:vp_x="0 : 0.5 : 1"
       sodipodi:type="inkscape:persp3d" />
    <radialGradient
       inkscape:collect="always"
       xlink:href="#linearGradient4451"
       id="radialGradient4457"
       cx="321.38449"
       cy="491.79034"
       fx="321.38449"
       fy="491.79034"
       r="534.9469"
       gradientTransform="matrix(1,0,0,0.31247832,0,338.11652)"
       gradientUnits="userSpaceOnUse" />
    <linearGradient
       inkscape:collect="always"
       xlink:href="#linearGradient3674"
       id="linearGradient3680"
       x1="355.65625"
       y1="205.125"
       x2="355.65625"
       y2="350.75061"
       gradientUnits="userSpaceOnUse" />
    <linearGradient
       inkscape:collect="always"
       xlink:href="#linearGradient3674"
       id="linearGradient3682"
       x1="494.88229"
       y1="197.02368"
       x2="494.88229"
       y2="352.08301"
       gradientUnits="userSpaceOnUse" />
    <linearGradient
       inkscape:collect="always"
       xlink:href="#linearGradient3674"
       id="linearGradient3684"
       x1="670.16376"
       y1="195.6189"
       x2="670.16376"
       y2="350.34576"
       gradientUnits="userSpaceOnUse" />
    <linearGradient
       inkscape:collect="always"
       xlink:href="#linearGradient3674"
       id="linearGradient3686"
       x1="883.07812"
       y1="201.3125"
       x2="883.07812"
       y2="346.38083"
       gradientUnits="userSpaceOnUse" />
    <linearGradient
       id="linearGradient3785-3">
      <stop
         style="stop-color:#0000bf;stop-opacity:1;"
         offset="0"
         id="stop3787-8" />
      <stop
         style="stop-color:#0000ec;stop-opacity:1;"
         offset="1"
         id="stop3789-0" />
    </linearGradient>
    <inkscape:perspective
       sodipodi:type="inkscape:persp3d"
       inkscape:vp_x="0 : 526.18109 : 1"
       inkscape:vp_y="0 : 1000 : 0"
       inkscape:vp_z="744.09448 : 526.18109 : 1"
       inkscape:persp3d-origin="372.04724 : 350.78739 : 1"
       id="perspective10-2" />
    <inkscape:perspective
       id="perspective2920-4"
       inkscape:persp3d-origin="0.5 : 0.33333333 : 1"
       inkscape:vp_z="1 : 0.5 : 1"
       inkscape:vp_y="0 : 1000 : 0"
       inkscape:vp_x="0 : 0.5 : 1"
       sodipodi:type="inkscape:persp3d" />
    <linearGradient
       inkscape:collect="always"
       xlink:href="#linearGradient3785-3"
       id="linearGradient3795-8"
       x1="-75.983749"
       y1="506.68976"
       x2="802.01624"
       y2="506.68976"
       gradientUnits="userSpaceOnUse" />
    <linearGradient
       gradientUnits="userSpaceOnUse"
       y2="506.68976"
       x2="802.01624"
       y1="506.68976"
       x1="-75.983749"
       id="linearGradient3795-3"
       xlink:href="#linearGradient3785-38"
       inkscape:collect="always" />
    <inkscape:perspective
       sodipodi:type="inkscape:persp3d"
       inkscape:vp_x="0 : 0.5 : 1"
       inkscape:vp_y="0 : 1000 : 0"
       inkscape:vp_z="1 : 0.5 : 1"
       inkscape:persp3d-origin="0.5 : 0.33333333 : 1"
       id="perspective2920-8" />
    <inkscape:perspective
       id="perspective10-4"
       inkscape:persp3d-origin="372.04724 : 350.78739 : 1"
       inkscape:vp_z="744.09448 : 526.18109 : 1"
       inkscape:vp_y="0 : 1000 : 0"
       inkscape:vp_x="0 : 526.18109 : 1"
       sodipodi:type="inkscape:persp3d" />
    <linearGradient
       id="linearGradient3785-38">
      <stop
         id="stop3787-0"
         offset="0"
         style="stop-color:#0000bf;stop-opacity:1;" />
      <stop
         id="stop3789-2"
         offset="1"
         style="stop-color:#0000ec;stop-opacity:1;" />
    </linearGradient>
    <linearGradient
       inkscape:collect="always"
       xlink:href="#linearGradient3808"
       id="linearGradient3814"
       x1="147.4267"
       y1="454.92105"
       x2="147.4267"
       y2="664.45984"
       gradientUnits="userSpaceOnUse" />
    <linearGradient
       inkscape:collect="always"
       xlink:href="#linearGradient3808"
       id="linearGradient3816"
       x1="342.94864"
       y1="454.92108"
       x2="342.94864"
       y2="664.46143"
       gradientUnits="userSpaceOnUse"
       gradientTransform="translate(220.4793,-325.39945)" />
    <linearGradient
       inkscape:collect="always"
       xlink:href="#linearGradient3808"
       id="linearGradient3818"
       x1="571.7395"
       y1="456.1835"
       x2="571.7395"
       y2="664.72589"
       gradientUnits="userSpaceOnUse"
       gradientTransform="translate(220.4793,-325.39945)" />
    <linearGradient
       inkscape:collect="always"
       xlink:href="#linearGradient3808"
       id="linearGradient3820"
       x1="-3.7692039"
       y1="456.1835"
       x2="-3.7692039"
       y2="664.72589"
       gradientUnits="userSpaceOnUse" />
    <linearGradient
       inkscape:collect="always"
       xlink:href="#linearGradient3808"
       id="linearGradient3830"
       gradientUnits="userSpaceOnUse"
       x1="-3.7692039"
       y1="456.1835"
       x2="-3.7692039"
       y2="664.72589"
       gradientTransform="translate(220.4793,-325.39945)" />
    <linearGradient
       inkscape:collect="always"
       xlink:href="#linearGradient3808"
       id="linearGradient3832"
       gradientUnits="userSpaceOnUse"
       x1="147.4267"
       y1="454.92105"
       x2="147.4267"
       y2="664.45984"
       gradientTransform="translate(220.4793,-325.39945)" />
    <linearGradient
       inkscape:collect="always"
       xlink:href="#linearGradient3808"
       id="linearGradient3848"
       gradientUnits="userSpaceOnUse"
       gradientTransform="translate(-275.56606,-185.16873)"
       x1="-3.7692039"
       y1="456.1835"
       x2="-3.7692039"
       y2="664.72589" />
    <linearGradient
       inkscape:collect="always"
       xlink:href="#linearGradient3808"
       id="linearGradient3850"
       gradientUnits="userSpaceOnUse"
       gradientTransform="translate(220.4793,-325.39945)"
       x1="571.7395"
       y1="456.1835"
       x2="571.7395"
       y2="664.72589" />
    <linearGradient
       inkscape:collect="always"
       xlink:href="#linearGradient3808"
       id="linearGradient3852"
       gradientUnits="userSpaceOnUse"
       gradientTransform="translate(220.4793,-325.39945)"
       x1="342.94864"
       y1="454.92108"
       x2="342.94864"
       y2="664.46143" />
    <linearGradient
       inkscape:collect="always"
       xlink:href="#linearGradient3808"
       id="linearGradient3854"
       gradientUnits="userSpaceOnUse"
       gradientTransform="translate(220.4793,-325.39945)"
       x1="147.4267"
       y1="454.92105"
       x2="147.4267"
       y2="664.45984" />
    <inkscape:perspective
       sodipodi:type="inkscape:persp3d"
       inkscape:vp_x="0 : 526.18109 : 1"
       inkscape:vp_y="0 : 1000 : 0"
       inkscape:vp_z="744.09448 : 526.18109 : 1"
       inkscape:persp3d-origin="372.04724 : 350.78739 : 1"
       id="perspective2842" />
    <inkscape:perspective
       id="perspective3015"
       inkscape:persp3d-origin="0.5 : 0.33333333 : 1"
       inkscape:vp_z="1 : 0.5 : 1"
       inkscape:vp_y="0 : 1000 : 0"
       inkscape:vp_x="0 : 0.5 : 1"
       sodipodi:type="inkscape:persp3d" />
    <linearGradient
       gradientUnits="userSpaceOnUse"
       y2="346.38083"
       x2="883.07812"
       y1="201.3125"
       x1="883.07812"
       id="linearGradient3686-4"
       xlink:href="#linearGradient3674-3"
       inkscape:collect="always" />
    <linearGradient
       gradientUnits="userSpaceOnUse"
       y2="350.34576"
       x2="670.16376"
       y1="195.6189"
       x1="670.16376"
       id="linearGradient3684-1"
       xlink:href="#linearGradient3674-3"
       inkscape:collect="always" />
    <linearGradient
       gradientUnits="userSpaceOnUse"
       y2="352.08301"
       x2="494.88229"
       y1="197.02368"
       x1="494.88229"
       id="linearGradient3682-8"
       xlink:href="#linearGradient3674-3"
       inkscape:collect="always" />
    <linearGradient
       gradientUnits="userSpaceOnUse"
       y2="350.75061"
       x2="355.65625"
       y1="205.125"
       x1="355.65625"
       id="linearGradient3680-5"
       xlink:href="#linearGradient3674-3"
       inkscape:collect="always" />
    <radialGradient
       gradientUnits="userSpaceOnUse"
       gradientTransform="matrix(1,0,0,0.31247832,0,338.11652)"
       r="534.9469"
       fy="491.79034"
       fx="321.38449"
       cy="491.79034"
       cx="321.38449"
       id="radialGradient4457-5"
       xlink:href="#linearGradient4451-4"
       inkscape:collect="always" />
    <inkscape:perspective
       sodipodi:type="inkscape:persp3d"
       inkscape:vp_x="0 : 0.5 : 1"
       inkscape:vp_y="0 : 1000 : 0"
       inkscape:vp_z="1 : 0.5 : 1"
       inkscape:persp3d-origin="0.5 : 0.33333333 : 1"
       id="perspective4420-6" />
    <linearGradient
       y2="274.99326"
       x2="523.98376"
       y1="274.99326"
       x1="181.2"
       gradientUnits="userSpaceOnUse"
       id="linearGradient4180-3"
       xlink:href="#linearGradient3652-7"
       inkscape:collect="always" />
    <inkscape:perspective
       sodipodi:type="inkscape:persp3d"
       inkscape:vp_x="0 : 0.5 : 1"
       inkscape:vp_y="0 : 1000 : 0"
       inkscape:vp_z="1 : 0.5 : 1"
       inkscape:persp3d-origin="0.5 : 0.33333333 : 1"
       id="perspective5025-2" />
    <linearGradient
       y2="274.99326"
       x2="523.98376"
       y1="274.99326"
       x1="181.2"
       gradientUnits="userSpaceOnUse"
       id="linearGradient4725-7"
       xlink:href="#linearGradient3652-7"
       inkscape:collect="always" />
    <linearGradient
       gradientUnits="userSpaceOnUse"
       y2="274.99326"
       x2="523.98376"
       y1="274.99326"
       x1="181.2"
       id="linearGradient3650-1"
       xlink:href="#linearGradient3652-7"
       inkscape:collect="always" />
    <inkscape:perspective
       id="perspective10-7-9"
       inkscape:persp3d-origin="372.04724 : 350.78739 : 1"
       inkscape:vp_z="744.09448 : 526.18109 : 1"
       inkscape:vp_y="0 : 1000 : 0"
       inkscape:vp_x="0 : 526.18109 : 1"
       sodipodi:type="inkscape:persp3d" />
    <linearGradient
       id="linearGradient3652-7">
      <stop
         style="stop-color:#2e5b90;stop-opacity:1;"
         offset="0"
         id="stop3654-0" />
      <stop
         id="stop4935-3"
         offset="0.49000001"
         style="stop-color:#2e5b90;stop-opacity:1;" />
      <stop
         style="stop-color:#7293c9;stop-opacity:1;"
         offset="0.52999997"
         id="stop4937-9" />
      <stop
         style="stop-color:#7293c9;stop-opacity:1;"
         offset="1"
         id="stop3656-9" />
    </linearGradient>
    <marker
       style="overflow:visible"
       id="Arrow1Lstart-6"
       refX="0"
       refY="0"
       orient="auto"
       inkscape:stockid="Arrow1Lstart">
      <path
         transform="matrix(0.8,0,0,0.8,10,0)"
         style="fill-rule:evenodd;stroke:#000000;stroke-width:1pt;marker-start:none"
         d="M 0,0 5,-5 -12.5,0 5,5 0,0 z"
         id="path3675-2" />
    </marker>
    <linearGradient
       inkscape:collect="always"
       xlink:href="#linearGradient3652-7"
       id="linearGradient3853-7"
       gradientUnits="userSpaceOnUse"
       x1="181.2"
       y1="274.99326"
       x2="523.98376"
       y2="274.99326" />
    <linearGradient
       inkscape:collect="always"
       xlink:href="#linearGradient3652-7"
       id="linearGradient3953-5"
       gradientUnits="userSpaceOnUse"
       x1="181.2"
       y1="274.99326"
       x2="523.98376"
       y2="274.99326" />
    <linearGradient
       inkscape:collect="always"
       xlink:href="#linearGradient3652-7"
       id="linearGradient4048-6"
       gradientUnits="userSpaceOnUse"
       x1="202.11981"
       y1="322.81427"
       x2="202.11981"
       y2="227.35905" />
    <linearGradient
       inkscape:collect="always"
       xlink:href="#linearGradient3652-7"
       id="linearGradient4050-8"
       gradientUnits="userSpaceOnUse"
       x1="270.15915"
       y1="324.21271"
       x2="270.15915"
       y2="225.71655" />
    <linearGradient
       inkscape:collect="always"
       xlink:href="#linearGradient3652-7"
       id="linearGradient4052-9"
       gradientUnits="userSpaceOnUse"
       x1="361.5654"
       y1="324.21271"
       x2="361.5654"
       y2="225.71655" />
    <linearGradient
       inkscape:collect="always"
       xlink:href="#linearGradient3652-7"
       id="linearGradient4054-3"
       gradientUnits="userSpaceOnUse"
       x1="466.09839"
       y1="323.2684"
       x2="466.09839"
       y2="227.53226" />
    <linearGradient
       inkscape:collect="always"
       xlink:href="#linearGradient3652-7"
       id="linearGradient4056-0"
       gradientUnits="userSpaceOnUse"
       x1="181.2"
       y1="274.99326"
       x2="523.98376"
       y2="274.99326" />
    <inkscape:perspective
       id="perspective4168-7"
       inkscape:persp3d-origin="0.5 : 0.33333333 : 1"
       inkscape:vp_z="1 : 0.5 : 1"
       inkscape:vp_y="0 : 1000 : 0"
       inkscape:vp_x="0 : 0.5 : 1"
       sodipodi:type="inkscape:persp3d" />
    <linearGradient
       inkscape:collect="always"
       xlink:href="#linearGradient3652-7"
       id="linearGradient4206-9"
       gradientUnits="userSpaceOnUse"
       x1="202.11981"
       y1="322.81427"
       x2="202.11981"
       y2="227.35905" />
    <linearGradient
       inkscape:collect="always"
       xlink:href="#linearGradient3652-7"
       id="linearGradient4208-9"
       gradientUnits="userSpaceOnUse"
       x1="270.15915"
       y1="324.21271"
       x2="270.15915"
       y2="225.71655" />
    <linearGradient
       inkscape:collect="always"
       xlink:href="#linearGradient3652-7"
       id="linearGradient4210-3"
       gradientUnits="userSpaceOnUse"
       x1="361.5654"
       y1="324.21271"
       x2="361.5654"
       y2="225.71655" />
    <linearGradient
       inkscape:collect="always"
       xlink:href="#linearGradient3652-7"
       id="linearGradient4212-2"
       gradientUnits="userSpaceOnUse"
       x1="466.09839"
       y1="323.2684"
       x2="466.09839"
       y2="227.53226" />
    <linearGradient
       inkscape:collect="always"
       xlink:href="#linearGradient3652-7"
       id="linearGradient4214-0"
       gradientUnits="userSpaceOnUse"
       x1="181.2"
       y1="274.99326"
       x2="523.98376"
       y2="274.99326" />
    <linearGradient
       gradientUnits="userSpaceOnUse"
       y2="506.68976"
       x2="802.01624"
       y1="506.68976"
       x1="-75.983749"
       id="linearGradient3795-9"
       xlink:href="#linearGradient3785-0"
       inkscape:collect="always" />
    <inkscape:perspective
       sodipodi:type="inkscape:persp3d"
       inkscape:vp_x="0 : 0.5 : 1"
       inkscape:vp_y="0 : 1000 : 0"
       inkscape:vp_z="1 : 0.5 : 1"
       inkscape:persp3d-origin="0.5 : 0.33333333 : 1"
       id="perspective2920-7" />
    <inkscape:perspective
       id="perspective10-73"
       inkscape:persp3d-origin="372.04724 : 350.78739 : 1"
       inkscape:vp_z="744.09448 : 526.18109 : 1"
       inkscape:vp_y="0 : 1000 : 0"
       inkscape:vp_x="0 : 526.18109 : 1"
       sodipodi:type="inkscape:persp3d" />
    <linearGradient
       id="linearGradient3785-0">
      <stop
         id="stop3787-5"
         offset="0"
         style="stop-color:#0000bf;stop-opacity:1;" />
      <stop
         id="stop3789-22"
         offset="1"
         style="stop-color:#0000ec;stop-opacity:1;" />
    </linearGradient>
    <linearGradient
       id="linearGradient4451-4">
      <stop
         id="stop4453-8"
         offset="0"
         style="stop-color:#ffffff;stop-opacity:1;" />
      <stop
         style="stop-color:#ffffff;stop-opacity:1;"
         offset="0.25581396"
         id="stop4459-3" />
      <stop
         id="stop4455-9"
         offset="1"
         style="stop-color:#cfcfcf;stop-opacity:1;" />
    </linearGradient>
    <linearGradient
       id="linearGradient3674-3">
      <stop
         id="stop3676-8"
         offset="0"
         style="stop-color:#5785d1;stop-opacity:1;" />
      <stop
         style="stop-color:#5785d1;stop-opacity:0.2682927;"
         offset="0.25581396"
         id="stop3688-0" />
      <stop
         id="stop3678-2"
         offset="1"
         style="stop-color:#5785d1;stop-opacity:0;" />
    </linearGradient>
    <linearGradient
       inkscape:collect="always"
       xlink:href="#linearGradient3808"
       id="linearGradient3933"
       x1="-52.979385"
       y1="385.89151"
       x2="781.30194"
       y2="385.89151"
       gradientUnits="userSpaceOnUse" />
    <linearGradient
       inkscape:collect="always"
       xlink:href="#linearGradient3808"
       id="linearGradient3935"
       gradientUnits="userSpaceOnUse"
       x1="-52.979385"
       y1="385.89151"
       x2="781.30194"
       y2="385.89151" />
    <linearGradient
       inkscape:collect="always"
       xlink:href="#linearGradient3808"
       id="linearGradient3937"
       gradientUnits="userSpaceOnUse"
       x1="-52.979385"
       y1="385.89151"
       x2="781.30194"
       y2="385.89151" />
    <linearGradient
       inkscape:collect="always"
       xlink:href="#linearGradient3808"
       id="linearGradient3939"
       gradientUnits="userSpaceOnUse"
       x1="-52.979385"
       y1="385.89151"
       x2="781.30194"
       y2="385.89151" />
    <linearGradient
       inkscape:collect="always"
       xlink:href="#linearGradient3808"
       id="linearGradient3941"
       gradientUnits="userSpaceOnUse"
       x1="-52.979385"
       y1="385.89151"
       x2="781.30194"
       y2="385.89151" />
    <linearGradient
       inkscape:collect="always"
       xlink:href="#linearGradient3808"
       id="linearGradient3944"
       gradientUnits="userSpaceOnUse"
       x1="241.3125"
       y1="304.45285"
       x2="241.3125"
       y2="63.306171"
       gradientTransform="matrix(0.89688937,0,0,-0.94440826,151.47539,550.4769)" />
    <linearGradient
       inkscape:collect="always"
       xlink:href="#linearGradient3808"
       id="linearGradient3947"
       gradientUnits="userSpaceOnUse"
       x1="459.31256"
       y1="304.45282"
       x2="459.31256"
       y2="63.304295"
       gradientTransform="matrix(0.89688937,0,0,-0.94440826,151.47539,550.4769)" />
    <linearGradient
       inkscape:collect="always"
       xlink:href="#linearGradient3808"
       id="linearGradient3950"
       gradientUnits="userSpaceOnUse"
       x1="714.40631"
       y1="303"
       x2="714.40631"
       y2="63"
       gradientTransform="matrix(0.89688937,0,0,-0.94440826,151.47539,550.4769)" />
    <linearGradient
       inkscape:collect="always"
       xlink:href="#linearGradient3808"
       id="linearGradient3954"
       gradientUnits="userSpaceOnUse"
       x1="72.734398"
       y1="303"
       x2="72.734398"
       y2="63"
       gradientTransform="matrix(0.89688937,0,0,-0.94440826,151.47539,550.4769)" />
    <linearGradient
       inkscape:collect="always"
       xlink:href="#linearGradient3808"
       id="linearGradient3984"
       gradientUnits="userSpaceOnUse"
       gradientTransform="matrix(0.89688937,0,0,-0.94440826,-44.00391,717.44885)"
       x1="72.734398"
       y1="303"
       x2="72.734398"
       y2="63" />
    <linearGradient
       inkscape:collect="always"
       xlink:href="#linearGradient3808"
       id="linearGradient3986"
       gradientUnits="userSpaceOnUse"
       gradientTransform="matrix(0.89688937,0,0,-0.94440826,-44.00391,717.44885)"
       x1="714.40631"
       y1="303"
       x2="714.40631"
       y2="63" />
    <linearGradient
       inkscape:collect="always"
       xlink:href="#linearGradient3808"
       id="linearGradient3988"
       gradientUnits="userSpaceOnUse"
       gradientTransform="matrix(0.89688937,0,0,-0.94440826,-44.00391,717.44885)"
       x1="459.31256"
       y1="304.45282"
       x2="459.31256"
       y2="63.304295" />
    <linearGradient
       inkscape:collect="always"
       xlink:href="#linearGradient3808"
       id="linearGradient3990"
       gradientUnits="userSpaceOnUse"
       gradientTransform="matrix(0.89688937,0,0,-0.94440826,-44.00391,717.44885)"
       x1="241.3125"
       y1="304.45285"
       x2="241.3125"
       y2="63.306171" />
  </defs>
  <sodipodi:namedview
     id="base"
     pagecolor="#ffffff"
     bordercolor="#666666"
     borderopacity="1.0"
     inkscape:pageopacity="0.0"
     inkscape:pageshadow="2"
     inkscape:zoom="1.3717219"
     inkscape:cx="533.80454"
     inkscape:cy="281.03225"
     inkscape:document-units="px"
     inkscape:current-layer="layer1"
     showgrid="false"
     showguides="false"
     inkscape:snap-bbox="false"
     inkscape:bbox-paths="false"
     inkscape:window-width="1920"
     inkscape:window-height="1163"
     inkscape:window-x="0"
     inkscape:window-y="0"
     inkscape:window-maximized="0"
     inkscape:snap-global="true"
     inkscape:showpageshadow="false">
    <inkscape:grid
       type="xygrid"
       id="grid3833"
       empspacing="5"
       visible="true"
       enabled="true"
       snapvisiblegridlinesonly="true" />
  </sodipodi:namedview>
  <metadata
     id="metadata7">
    <rdf:RDF>
      <cc:Work
         rdf:about="">
        <dc:format>image/svg+xml</dc:format>
        <dc:type
           rdf:resource="http://purl.org/dc/dcmitype/StillImage" />
        <dc:title></dc:title>
      </cc:Work>
    </rdf:RDF>
  </metadata>
  <g
     inkscape:label="Layer 1"
     inkscape:groupmode="layer"
     id="layer1"
     transform="translate(210.63016,-141.97402)">
    <path
       id="path3995"
       d=""
       style="fill:#f40000;fill-opacity:1;fill-rule:nonzero;stroke:none" />
    <path
       id="path3995-4"
       d=""
       style="fill:#f40000;fill-opacity:1;fill-rule:nonzero;stroke:none" />
    <path
       style="fill:#d6d6d6;fill-opacity:1;stroke:none"
       d="m -168.43996,350.8451 c -15.21661,13.87238 10.78349,5.91223 2.38939,15.88351 0.001,7.75768 18.40421,8.70616 23.37331,14.89954 10.68798,-1.67291 18.25926,4.80661 29.34955,3.72348 16.50872,-9.46252 16.42474,8.20668 29.93718,8.89064 8.639324,5.29949 22.859644,0.61503 33.343678,5.96099 22.14291,0.57443 43.397205,7.26835 63.619577,16.28546 31.784795,-4.21805 62.414423,-10.125 94.697925,-9.73835 14.87479,4.15836 17.99663,-9.83479 25.92916,-10.21154 11.85356,-3.43746 25.62758,1.40426 25.2328,-11.71609 15.74254,-10.77867 3.33706,-16.42948 15.92904,-21.35389 -16.85085,-5.37915 -5.17213,-9.75097 6.09918,-11.06083 3.69436,-7.69177 7.87343,-16.80386 21.76999,-16.36458 14.15632,-3.82119 24.41276,-7.86832 30.57068,-14.13277 22.7971,-10.4281 49.32201,-4.65045 72.31915,-13.24802 12.68269,-2.65077 26.18143,4.80636 39.69731,2.14704 21.50576,3.96018 42.70234,-0.48719 64.25725,3.58689 13.79394,-3.43263 22.92857,-1.74344 34.27286,0.82466 17.70546,1.39234 34.77962,5.56788 51.38156,12.42012 13.00951,-0.17237 23.34072,1.67948 38.02721,1.79415 12.27919,-4.0167 24.64888,0.61559 36.51343,-0.40504 9.7119,-3.40408 28.39852,5.89904 10.13829,10.52455 8.07417,0.25049 16.38018,12.1808 28.88165,7.44489 12.64778,-9.0821 28.61878,-1.46973 42.31845,-2.45347 11.13038,3.68112 26.2851,0.39102 34.09172,5.80689 9.53653,5.34966 18.93414,-1.0486 27.58617,6.31235 5.59453,-6.10825 19.72353,-4.09487 30.39583,0.80795 19.38217,6.18837 4.45232,14.83377 4.76881,19.74335 6.07634,12.74137 18.53627,19.70638 25.91504,31.69747 19.39281,6.77248 -18.67694,4.58516 -6.42018,11.9024 1.95793,11.36148 -28.18314,8.57954 -8.98839,12.62379 11.42764,6.61921 21.33225,7.07369 32.42201,9.1372 10.20793,5.03879 20.88336,9.19319 33.01856,8.7393 14.57145,-2.46374 2.61395,15.82733 23.15818,15.78689 14.63633,6.78628 -25.19636,4.45881 -11.23034,15.60749 -3.34224,9.78906 0.59043,13.74623 15.62012,14.46715 9.54237,-1.81976 35.34672,7.11101 12.43222,7.22911 -20.27869,-1.30186 -15.35136,7.8736 -16.62287,13.42111 -15.84018,4.88195 -27.98306,19.69769 -44.1774,22.37283 9.94853,10.46889 10.30408,20.32081 -9.34567,19.5107 -11.03078,4.53021 -21.50138,5.14157 -31.81773,12.20513 -12.30532,11.20114 -5.30416,15.87269 -6.98816,24.67034 -15.46039,8.90255 -34.74848,4.12592 -49.63971,15.04627 -17.49191,7.91108 -36.64584,8.94481 -55.15293,14.35975 -12.00012,3.67697 -25.60751,1.93664 -35.45135,6.8489 -19.04201,8.02162 -7.34558,-2.34019 -23.36158,-0.88888 -16.71331,-2.65491 -33.71707,2.32326 -49.60545,3.65908 -17.33466,8.83693 -36.36592,-0.45043 -54.81324,3.22203 -20.70271,-1.37659 -41.54491,-4.97742 -62.56047,-2.85839 -14.05039,1.21909 -27.29767,-4.01319 -40.8237,-6.8074 -2.27821,-15.44819 15.16548,-15.64336 24.83239,-21.06675 6.87498,-7.00871 5.06971,-21.52498 -7.49783,-24.25861 -10.114,-10.05627 -21.85727,-4.64291 -25.34084,-0.79249 -12.40561,-2.56303 -18.77234,4.13595 -32.05554,1.04471 -18.27621,-2.3638 -36.15046,-7.06552 -54.90739,-6.48237 -15.82783,-0.92075 -31.77973,-2.81501 -47.23817,-5.43182 3.25372,6.41789 -23.44882,1.75546 -30.58837,3.2169 -10.03452,9.41875 -24.71966,-4.89759 -37.14474,-0.45167 -11.82481,0.25186 -24.55171,4.44673 -37.82362,4.39405 -15.48876,0.66423 -29.07946,-7.94267 -44.581094,-6.31271 -19.000334,-2.56278 -39.01165,-4.51801 -56.251521,-12.42372 -15.97271,2.59357 -22.624592,0.85164 -28.500983,-8.24501 -6.563345,-6.87556 -25.237238,-15.68718 -19.991542,-24.90205 -1.26473,-9.53386 13.349695,-7.32036 -6.173292,-11.63804 4.905105,-0.32511 13.241271,-13.83561 -5.873207,-11.7569 -10.368774,0.60257 -18.325531,4.21005 -27.116794,2.71599 -12.459983,7.01236 -30.062067,7.01856 -39.163197,-5.89111 -4.56379,-12.57514 20.354714,-3.25551 14.57364,-16.99938 -2.93966,-6.9776 0.34893,-9.94118 13.167834,-17.51294 7.964307,-0.68721 21.868899,-9.01739 8.598108,-10.45935 -4.390198,-1.72851 7.014873,-2.57564 -6.485658,-3.2391 21.140348,-6.98347 -3.30526,-2.1371 -9.30927,-6.01132 7.1223,-3.75767 32.763521,-11.07887 12.542667,-13.07793 -11.178667,-2.02533 -15.904027,7.11426 -26.988131,5.02273 -8.34894,-15.77559 -11.74859,-1.00139 -17.01355,1.32251 1.25264,-14.34032 -29.1479,3.03822 -13.16136,-12.50354 -7.03236,-2.38625 -30.13573,-5.68773 -10.91437,-10.21924 13.08629,2.68483 32.41179,-2.22511 8.11807,-2.1631 3.01817,-8.22165 -19.84098,-8.52602 -27.94538,-7.7125 -17.4708,8.1792 -18.56939,-4.98352 -11.9526,-6.35497 -10.04522,-3.62429 -16.49847,-11.72043 -23.83503,-18.31951 -2.95218,-7.6777 -8.35093,-20.47612 4.90042,-28.83987 2.48079,-1.95977 5.78139,-1.97998 8.66224,-2.97504 z"
       id="path3720" />
    <path
       style="fill:url(#linearGradient3984);fill-opacity:1;stroke:none"
       d="m -24.51055,431.28445 0,72.71875 c 18.31005,-1.71984 10.13236,11.49097 5.28125,11.8125 2.20467,0.48758 3.84397,0.87142 5.25,1.21875 0.16068,-0.45735 0.4368,-0.8586 0.875,-1.125 L 13.98945,499.4407 -11.2918,484.09695 c -0.99165,-0.60286 -1.32253,-1.95581 -0.75,-3 0.57252,-1.04418 1.82084,-1.38411 2.8125,-0.78125 l 25.5625,15.5625 0,-31.96875 c 0,-1.20572 0.94869,-2.15625 2.09375,-2.15625 1.14506,0 2.0625,0.95053 2.0625,2.15625 l 0,34.46875 35.78125,21.78125 c 0.20746,0.0466 0.39961,0.10074 0.59375,0.21875 l 0.75,0.5 0,-46.03125 c -0.15989,-0.0483 -0.31791,-0.0958 -0.46875,-0.1875 l -28.65625,-17.4375 c -0.99165,-0.60286 -1.32253,-1.89332 -0.75,-2.9375 0.57252,-1.04419 1.8521,-1.41536 2.84375,-0.8125 l 27.03125,16.46875 0,-30.71875 c 0,-1.20573 0.94869,-2.1875 2.09375,-2.1875 1.14506,0 2.0625,0.98177 2.0625,2.1875 l 0,31.0625 5.25,-3.1875 0,-35.8125 -91.53125,0 z m 91.53125,40.84375 -5.25,3.1875 0,43.59375 c 0.0545,0.19573 0.0937,0.41018 0.0937,0.625 l 0,1.71875 5.15625,-3.125 0,-46 z m -49,29.78125 c -0.12221,0.12597 -0.25101,0.24945 -0.40625,0.34375 L -9.2918,518.59695 c 1.68331,1.34346 -4.63099,2.46944 -3.78125,8.875 -5.2457,9.21487 13.43666,17.99944 20,24.875 0.38934,0.6027 0.75761,1.17974 1.15625,1.71875 l 6.5625,-4 -26.28125,-15.96875 c -0.99165,-0.60286 -1.32253,-1.95582 -0.75,-3 0.57252,-1.04419 1.82085,-1.38411 2.8125,-0.78125 l 28.34375,17.21875 35.875,-21.8125 c 0.12894,-0.13827 0.30123,-0.27316 0.46875,-0.375 l 0.75,-0.4375 -37.84375,-23 z m 49,21.21875 -2.84375,1.71875 2.84375,1.71875 0,-3.4375 z m -5.15625,5.3125 0,40.1875 c 1.71784,0.33335 3.42574,0.64478 5.15625,0.9375 l 0,-38 -5.15625,-3.125 z m -4.125,0.4375 -37.28125,22.6875 c 0.0412,0.1719 0.0937,0.3455 0.0937,0.53125 l 0,9.375 c 3.88876,0.47398 8.68176,0.13063 14.875,-0.875 7.06077,3.23787 14.58182,5.49536 22.3125,7.1875 l 0,-38.90625 z m -41.34375,25.15625 -5.375,3.28125 c 1.59535,1.4434 3.35318,2.50722 5.375,3.21875 l 0,-6.5 z"
       id="path3093" />
    <path
       style="fill:url(#linearGradient3986);fill-opacity:1;stroke:none"
       d="m 564.2707,431.28445 -77.53125,0.53125 0,27.71875 23.4375,-14.25 c 0.99164,-0.60286 2.27122,-0.26294 2.84375,0.78125 0.57251,1.04418 0.24164,2.39713 -0.75,3 l -23.125,14.03125 25.625,15.59375 c 0.99164,0.60286 1.32252,1.89332 0.75,2.9375 -0.57252,1.04419 -1.82087,1.41536 -2.8125,0.8125 l -27.6875,-16.8125 -14.875,9.0625 0.21875,27.46875 0,0.53125 14.375,8.71875 c 0.17534,-0.36096 0.42158,-0.68759 0.78125,-0.90625 l 28.65625,-17.40625 c 0.99164,-0.60286 2.23997,-0.26294 2.8125,0.78125 0.57251,1.04418 0.24163,2.39713 -0.75,3 l -27.71875,16.84375 23.46875,14.25 c 0.99164,0.60287 1.32251,1.95582 0.75,3 -0.57253,1.04419 -1.85212,1.38411 -2.84375,0.78125 l -23.09375,-14.03125 0,31.125 c 0,1.20573 -0.91744,2.1875 -2.0625,2.1875 -1.14506,0 -2.0625,-0.98177 -2.0625,-2.1875 l 0,-33.65625 -12.34375,-7.5 -0.15625,45.09375 4.46875,2.71875 c 0.99164,0.60286 1.32251,1.95582 0.75,3 -0.57253,1.04419 -1.82087,1.38411 -2.8125,0.78125 l -2.4375,-1.46875 -0.3125,79.5 c 5.86362,0.56405 11.72184,1.14289 17.5625,1.53125 18.44732,-3.67246 37.47784,5.61818 54.8125,-3.21875 12.9486,-1.08866 26.64323,-4.61376 40.3125,-4.4375 l 14.21875,-17.9375 16.21875,20.46875 c 0.71018,-0.27949 1.39941,-0.52985 2.21875,-0.875 9.84384,-4.91226 23.46863,-3.16678 35.46875,-6.84375 4.40129,-1.28776 8.83785,-2.33763 13.28125,-3.28125 l 0,-25.25 -25.25,15.34375 c -0.99166,0.60287 -2.23999,0.26293 -2.8125,-0.78125 -0.57253,-1.04419 -0.24166,-2.39714 0.75,-3 l 25.5625,-15.53125 -26.28125,-15.96875 c -0.99166,-0.60286 -1.32252,-1.95582 -0.75,-3 0.57252,-1.04419 1.82085,-1.38411 2.8125,-0.78125 l 28.34375,17.21875 35.875,-21.78125 c 0.12894,-0.13827 0.26998,-0.30441 0.4375,-0.40625 l 0.78125,-0.4375 -37.84375,-23 c -0.12221,0.12597 -0.28225,0.24935 -0.4375,0.34375 l -28.59375,17.40625 c -0.99166,0.60286 -2.27124,0.26294 -2.84375,-0.78125 -0.57253,-1.04418 -0.24165,-2.36588 0.75,-2.96875 L 661.5207,542.8782 636.23945,527.53445 c -0.99166,-0.60286 -1.32253,-1.92456 -0.75,-2.96875 0.57251,-1.04418 1.82084,-1.41536 2.8125,-0.8125 l 25.5625,15.5625 0,-31.96875 c 0,-1.20572 0.91744,-2.15625 2.0625,-2.15625 1.14506,0 2.09375,0.95053 2.09375,2.15625 l 0,34.46875 35.78125,21.78125 c 0.20746,0.0466 0.39961,0.13199 0.59375,0.25 l 0.75,0.46875 0,-46.03125 c -0.15989,-0.0483 -0.31791,-0.0958 -0.46875,-0.1875 L 676.0207,500.6907 c -0.99165,-0.60286 -1.32253,-1.92457 -0.75,-2.96875 0.57252,-1.04419 1.8521,-1.38411 2.84375,-0.78125 l 27.03125,16.4375 0,-30.71875 c 0,-1.20573 0.94869,-2.15625 2.09375,-2.15625 1.14506,0 2.0625,0.95052 2.0625,2.15625 l 0,31.0625 14.40625,-8.75 0,-73.03125 -92.125,0 -0.59375,113 -33.65625,-43.40625 -34.25,42.75 1.1875,-113 z m -81.65625,0.5625 -12.84375,0.0937 0.3125,37.71875 12.84375,-7.78125 c -0.21,-0.34078 -0.3125,-0.78057 -0.3125,-1.21875 l 0,-28.8125 z m 241.09375,78.15625 -14.40625,8.78125 0,43.5625 c 0.0544,0.19573 0.0937,0.41018 0.0937,0.625 l 0,1.71875 14.3125,-8.71875 0,-45.96875 z m 0,51 -12,7.28125 12,7.28125 0,-14.5625 z m -14.3125,10.875 0,37.4375 c 4.51928,-2.50721 9.36175,-3.87636 14.3125,-4.84375 l 0,-23.875 -14.3125,-8.71875 z m -4.125,0.46875 -37.28125,22.65625 c 0.041,0.1719 0.0937,0.3455 0.0937,0.53125 l 0,26.34375 c 12.67125,-2.56135 25.30373,-4.75895 37.18755,-10.03125 l 0,-39.5 z"
       id="path3095" />
    <path
       style="fill:url(#linearGradient3988);fill-opacity:1;stroke:none"
       d="m 363.86445,429.9407 c -68.16817,0.5403 -92.46875,18 -92.46875,18 l 23.625,74.4375 c 0,0 18.90055,-29.16289 40.75,-34.125 23.77706,-5.39987 24.79092,4.32862 26.5625,10.53125 1.77157,6.20263 -12.37576,14.9148 -35.40625,24.21875 -19.89486,8.0372 -39.84416,24.87019 -45.25,54.09375 2.46145,0.18898 4.91722,0.38827 7.375,0.53125 18.75693,-0.58315 36.63004,4.10495 54.90625,6.46875 13.2832,3.09124 19.65689,-3.59428 32.0625,-1.03125 2.0466,-2.26212 6.94441,-5.08156 12.6875,-4.96875 2.71031,-1.47877 5.57058,-2.71824 8.46875,-3.625 13.75318,-4.303 30.40409,-9.85102 43.5625,-20.0625 l 0,-11.5625 -25.625,15.59375 c -0.99165,0.60286 -2.23997,0.23169 -2.8125,-0.8125 -0.57253,-1.04418 -0.24165,-2.36589 0.75,-2.96875 l 27.6875,-16.8125 0,-45.1875 -37.28125,22.65625 c 0.0411,0.1719 0.0937,0.3455 0.0937,0.53125 l 0,34.8125 c 0,1.20573 -0.9487,2.1875 -2.09375,2.1875 -1.14506,0 -2.0625,-0.98177 -2.0625,-2.1875 l 0,-32.875 -25.25,15.34375 c -0.99166,0.60286 -2.23998,0.26294 -2.8125,-0.78125 -0.57253,-1.04418 -0.24166,-2.36588 0.75,-2.96875 l 25.56255,-15.5625 -26.28125,-15.96875 c -0.99166,-0.60287 -1.32253,-1.92457 -0.75,-2.96875 0.57252,-1.04419 1.82085,-1.41536 2.8125,-0.8125 l 28.34375,17.25 35.875,-21.8125 c 0.12894,-0.13827 0.30123,-0.3044 0.46875,-0.40625 l 0.75,-0.4375 -37.84375,-22.96875 c -0.12221,0.12598 -0.251,0.2181 -0.40625,0.3125 l -28.625,17.40625 c -0.99166,0.60286 -2.27123,0.26294 -2.84375,-0.78125 -0.57253,-1.04418 -0.24165,-2.36589 0.75,-2.96875 L 396.98945,463.1907 371.7082,447.84695 c -0.99165,-0.60286 -1.32253,-1.92457 -0.75,-2.96875 0.57252,-1.04419 1.82084,-1.41536 2.8125,-0.8125 l 25.5625,15.5625 0,-27.8125 c -8.46711,-1.16217 -17.9815,-1.7862 -28.71875,-1.875 -2.29089,-0.019 -4.55103,-0.0174 -6.75,0 z m 39.625,2.53125 0,29.65625 35.78125,21.78125 c 0.20746,0.0466 0.39961,0.13198 0.59375,0.25 l 0.75,0.46875 0,-38 c -8.83764,-6.71825 -20.87009,-11.47784 -37.125,-14.15625 z m 41.28125,17.71875 0,32.46875 c 0.0544,0.19574 0.0937,0.41017 0.0937,0.625 l 0,1.71875 14.75,-8.96875 c -2.81353,-10.23598 -7.47814,-18.88687 -14.8437,-25.84375 z m 15.90625,30.21875 -13.5,8.1875 15.84375,9.625 c -0.3914,-6.33599 -1.14625,-12.28932 -2.34375,-17.8125 z m -15.8125,11.8125 0,45.59375 c 0.38797,-0.0229 0.79318,0.0605 1.15625,0.28125 l 6.71875,4.09375 c 6.78964,-9.35199 10.98993,-21.40616 10.59375,-37.21875 -0.0135,-0.54106 -0.0448,-1.05793 -0.0625,-1.59375 l -18.40625,-11.15625 z m 0,50.21875 0,8.5 c 1.83157,-1.67323 3.59282,-3.43563 5.21875,-5.34375 l -5.21875,-3.15625 z m -4.5625,29.53125 c -0.59052,0.62025 -6.65883,18.32333 -27.1875,28.5625 -0.18907,0.0943 -0.37435,0.15771 -0.5625,0.25 -0.50702,2.75202 -1.73984,5.32695 -3.6875,7.3125 -9.66691,5.42339 -27.12196,5.61431 -24.84375,21.0625 13.52603,2.79421 26.76211,8.03159 40.8125,6.8125 12.67212,-1.27775 25.29027,-0.48373 37.84375,0.65625 -4.48302,-13.38628 -21.85723,-65.20011 -22.375,-64.65625 z"
       id="path3097" />
    <path
       style="fill:url(#linearGradient3990);fill-opacity:1;stroke:none"
       d="m 168.36445,429.9407 c -68.16816,0.5403 -92.5,18 -92.5,18 l 23.625,74.4375 c 0,0 18.90054,-29.16289 40.75,-34.125 23.77705,-5.39987 24.82217,4.32862 26.59375,10.53125 1.77158,6.20263 -12.407,14.9148 -35.4375,24.21875 -18.81463,7.60081 -37.65343,23.06271 -44.21875,49.4375 1.49742,0.19625 3.01315,0.3932 4.5,0.59375 7.30507,-0.76811 14.1763,0.73174 21.03125,2.46875 l -10.5625,-6.40625 c -0.99165,-0.60286 -1.35378,-1.95582 -0.78125,-3 0.57252,-1.04419 1.8521,-1.38411 2.84375,-0.78125 l 21.8125,13.28125 c 1.24125,0.21132 2.49195,0.36845 3.75,0.5 l 0,-30.1875 c 0,-1.20573 0.91744,-2.15625 2.0625,-2.15625 1.14506,0 2.09375,0.95052 2.09375,2.15625 l 0,30.4375 c 0.76962,0.011 1.53376,0.0334 2.3125,0 12.14303,0.0482 23.85544,-3.46007 34.8125,-4.25 l 0,-15.25 c -0.15989,-0.0483 -0.31791,-0.0958 -0.46875,-0.1875 l -28.65625,-17.4375 c -0.99165,-0.60287 -1.32253,-1.89332 -0.75,-2.9375 0.57252,-1.04419 1.8521,-1.41536 2.84375,-0.8125 l 27.03125,16.4375 0,-30.6875 c 0,-1.20572 0.91744,-2.1875 2.0625,-2.1875 1.14506,0 2.09375,0.98178 2.09375,2.1875 l 0,31.0625 26.25,-15.9375 c 0.99163,-0.60286 2.27122,-0.26294 2.84375,0.78125 0.57251,1.04418 0.24164,2.36589 -0.75,2.96875 l -28.34375,17.21875 0,14.28125 c 6.25345,-1.66434 13.02104,0.99906 19.4375,2.75 2.27228,-1.14352 4.61858,-2.12992 7,-2.875 3.63147,-1.13619 7.48813,-2.34875 11.40625,-3.71875 l 0,-23.6875 c 0,-1.20573 0.91744,-2.15625 2.0625,-2.15625 1.14506,0 2.03125,0.95052 2.03125,2.15625 l 0,22.15625 c 24.9434,-9.32496 51.62896,-25.42583 50.65625,-64.25 -1.18106,-47.14 -17.72201,-74.41098 -92.71875,-75.03125 -2.29089,-0.019 -4.51978,-0.0174 -6.71875,0 z m 76.40625,142.03125 c -0.0569,0.0597 -0.17744,0.30143 -0.34375,0.65625 0.24877,0.0406 0.501,0.0535 0.75,0.0937 -0.21651,-0.51346 -0.36823,-0.78993 -0.40625,-0.75 z"
       id="path3099" />
    <g
       transform="matrix(0.89688937,0,0,1.0724624,22.964022,-117.40761)"
       id="layer1-5"
       inkscape:label="Layer 1">
      <path
         id="path2934"
         transform="translate(-74.666885,202.16507)"
         d="m 21.6875,63 0.03125,240 102.0625,0 0,-37.90625 -5.84375,-3.375 0,32.875 c 0,1.2767 -1.0358,2.3125 -2.3125,2.3125 -1.2767,0 -2.3125,-1.0358 -2.3125,-2.3125 l 0,-32.5 L 83.15625,279.5 c -1.10566,0.63835 -2.51791,0.2619 -3.15625,-0.84375 -0.63835,-1.10565 -0.26191,-2.48665 0.84375,-3.125 l 31.9375,-18.4375 c 0.16818,-0.0971 0.35298,-0.16765 0.53125,-0.21875 l 0,-48.71875 -0.84375,0.5 c -0.21646,0.12496 -0.42494,0.2007 -0.65625,0.25 l -39.90625,23.0625 0,36.5 c 0,1.2767 -1.0358,2.28125 -2.3125,2.28125 -1.2767,0 -2.3125,-1.00455 -2.3125,-2.28125 l 0,-33.84375 -28.5,16.46875 c -1.10566,0.63835 -2.51791,0.2619 -3.15625,-0.84375 -0.63835,-1.10565 -0.26191,-2.5179 0.84375,-3.15625 l 28.1875,-16.25 -30.1875,-17.4375 c -1.10566,-0.63835 -1.4821,-2.01935 -0.84375,-3.125 0.63834,-1.10565 2.05059,-1.4821 3.15625,-0.84375 L 68.6875,227.875 c 0.17309,0.0999 0.33249,0.21036 0.46875,0.34375 L 111.34375,203.875 110.5,203.40625 C 110.31322,203.29841 110.14377,203.14641 110,203 l -40,-23.09375 -31.59375,18.25 c -1.10566,0.63835 -2.51791,0.2619 -3.15625,-0.84375 -0.63835,-1.10565 -0.26191,-2.5179 0.84375,-3.15625 l 29.3125,-16.90625 -28.5,-16.46875 c -1.10566,-0.63835 -1.4821,-2.0506 -0.84375,-3.15625 0.63834,-1.10565 2.01934,-1.4821 3.125,-0.84375 l 28.15625,16.25 0,-34.8125 c 0,-1.2767 1.0358,-2.3125 2.3125,-2.3125 1.2767,0 2.3125,1.0358 2.3125,2.3125 l 0,36.875 c 0,0.19668 -0.04785,0.38048 -0.09375,0.5625 l 41.5625,24 0,-47.84375 L 82.5625,134 c -1.10565,-0.63835 -1.4821,-2.0506 -0.84375,-3.15625 0.63835,-1.10565 2.0506,-1.4821 3.15625,-0.84375 l 28.5625,16.5 0,-29.78125 c 0,-1.2767 1.00455,-2.28125 2.28125,-2.28125 1.2767,0 2.3125,1.00455 2.3125,2.28125 l 0,30.21875 5.75,-3.3125 0,-80.625 -102.09375,0 z m 102.09375,85.9375 -4.46875,2.59375 c -0.40481,0.2337 -0.84868,0.3368 -1.28125,0.3125 l 0,48.28125 5.75,-3.3125 0,-47.875 z m 0,53.1875 -3.15625,1.8125 3.15625,1.8125 0,-3.625 z m -5.75,5.625 0,1.8125 c 0,0.22747 -0.0329,0.44899 -0.0937,0.65625 l 0,46.15625 5.84375,3.375 0,-48.6875 -5.75,-3.3125 z"
         style="fill:#5785d1;fill-opacity:1;stroke:none" />
      <path
         id="path2936"
         transform="translate(-74.666885,202.16507)"
         d="m 572.84375,63 0.40625,106.03125 2.71875,-1.5625 c 1.10564,-0.63835 2.5179,-0.2619 3.15625,0.84375 0.63833,1.10565 0.26189,2.5179 -0.84375,3.15625 l -5,2.875 0.1875,47.75 13.75,-7.9375 0,-35.625 c 0,-1.2767 1.0358,-2.3125 2.3125,-2.3125 1.2767,0 2.28125,1.0358 2.28125,2.3125 l 0,32.96875 25.78125,-14.875 c 1.10564,-0.63835 2.5179,-0.2619 3.15625,0.84375 0.63833,1.10565 0.26189,2.5179 -0.84375,3.15625 L 593.75,215.71875 624.65625,233.5625 c 1.10564,0.63835 1.48208,2.0506 0.84375,3.15625 -0.63835,1.10565 -2.05061,1.4821 -3.15625,0.84375 l -31.9375,-18.4375 c -0.40102,-0.23153 -0.6795,-0.58655 -0.875,-0.96875 l -16.03125,9.25 0,0.5625 -0.25,29.09375 16.59375,9.59375 30.875,-17.8125 c 1.10564,-0.63835 2.48665,-0.2619 3.125,0.84375 0.63833,1.10565 0.26189,2.48665 -0.84375,3.125 l -28.5625,16.5 25.78125,14.875 c 1.10564,0.63835 1.48208,2.0506 0.84375,3.15625 -0.63835,1.10565 -2.05061,1.4821 -3.15625,0.84375 L 591.75,273.09375 l 0,29.34375 86.4375,0.5625 -1.3125,-119.65625 38.1875,45.28125 37.53125,-45.96875 0.65625,119.65625 102.71875,0 0,-77.34375 -16.0625,-9.25 0,32.875 c 0,1.2767 -1.0358,2.3125 -2.3125,2.3125 -1.2767,0 -2.3125,-1.0358 -2.3125,-2.3125 l 0,-32.5 L 805.125,233.5 c -1.10566,0.63835 -2.51792,0.2619 -3.15625,-0.84375 -0.63835,-1.10565 -0.26191,-2.48665 0.84375,-3.125 l 31.9375,-18.4375 c 0.16818,-0.0971 0.35298,-0.16765 0.53125,-0.21875 l 0,-48.71875 -0.84375,0.5 c -0.21646,0.12496 -0.42494,0.2007 -0.65625,0.25 l -39.90625,23.0625 0,36.5 c 0,1.2767 -1.0358,2.28125 -2.3125,2.28125 -1.2767,0 -2.3125,-1.00455 -2.3125,-2.28125 l 0,-33.84375 -28.5,16.46875 c -1.10566,0.63835 -2.51792,0.2619 -3.15625,-0.84375 -0.63835,-1.10565 -0.26191,-2.5179 0.84375,-3.15625 l 28.1875,-16.25 -30.1875,-17.4375 c -1.10566,-0.63835 -1.4821,-2.01935 -0.84375,-3.125 0.63833,-1.10565 2.05059,-1.4821 3.15625,-0.84375 l 31.90625,18.4375 c 0.17309,0.0999 0.33249,0.21036 0.46875,0.34375 l 42.1875,-24.34375 -0.84375,-0.46875 c -0.18678,-0.10784 -0.35623,-0.25984 -0.5,-0.40625 l -40,-23.09375 -31.59375,18.25 c -1.10566,0.63835 -2.51792,0.2619 -3.15625,-0.84375 -0.63835,-1.10565 -0.26191,-2.5179 0.84375,-3.15625 L 787.375,131.25 l -28.5,-16.46875 c -1.10566,-0.63835 -1.4821,-2.0506 -0.84375,-3.15625 0.63833,-1.10565 2.01934,-1.4821 3.125,-0.84375 l 28.15625,16.25 0,-34.8125 c 0,-1.2767 1.0358,-2.3125 2.3125,-2.3125 1.2767,0 2.3125,1.0358 2.3125,2.3125 l 0,36.875 c 0,0.19668 -0.0479,0.38048 -0.0937,0.5625 l 41.5625,24 0,-47.84375 L 804.53125,88 c -1.10566,-0.63835 -1.48211,-2.0506 -0.84375,-3.15625 0.63835,-1.10565 2.05059,-1.4821 3.15625,-0.84375 l 28.5625,16.5 0,-29.78125 c 0,-1.2767 1.00455,-2.28125 2.28125,-2.28125 1.2767,0 2.3125,1.00455 2.3125,2.28125 l 0,30.21875 15.96875,-9.21875 0,-28.71875 -102.0625,0 -39.5,47.3125 -39.5,-47.3125 -102.0625,0 z m 283.125,34.0625 -14.6875,8.46875 c -0.40481,0.2337 -0.84868,0.3368 -1.28125,0.3125 l 0,48.28125 15.96875,-9.21875 0,-47.84375 z m 0,53.15625 -13.375,7.71875 13.375,7.71875 0,-15.4375 z M 840,161.75 l 0,1.8125 c 0,0.22747 -0.033,0.44899 -0.0937,0.65625 l 0,46.15625 16.0625,9.28125 0,-48.6875 L 840,161.75 z m -266.8125,100.625 -0.34375,39.9375 14.3125,0.0937 0,-30.5 c 0,-0.46397 0.10965,-0.92041 0.34375,-1.28125 l -14.3125,-8.25 z"
         style="fill:#5785d1;fill-opacity:1;stroke:none" />
      <path
         id="path2942"
         transform="translate(-74.666885,202.16507)"
         d="m 462.25,63.3125 c -1.52636,0.01231 -3.07116,0.02145 -4.59375,0.0625 -47.50272,1.28066 -96.78341,24.30755 -96.125,69.625 0.59157,40.71572 26.35306,63.05463 52.03125,72.90625 25.67819,9.85161 41.47524,19.05725 39.5,25.625 -1.97525,6.56774 -3.11442,16.87398 -29.625,11.15625 C 399.07613,237.4333 378,206.5625 378,206.5625 l -26.34375,78.8125 c 0,0 28.88852,19.70448 110.625,19.0625 11.97166,-0.094 22.59072,-0.76942 32.03125,-2 l 0,-29.4375 -28.5,16.46875 c -1.10566,0.63835 -2.51791,0.2619 -3.15625,-0.84375 -0.63835,-1.10565 -0.26191,-2.5179 0.84375,-3.15625 l 28.1875,-16.25 -30.1875,-17.4375 c -1.10566,-0.63835 -1.4821,-2.01935 -0.84375,-3.125 0.63834,-1.10565 2.05059,-1.4821 3.15625,-0.84375 l 31.90625,18.4375 c 0.17309,0.0999 0.33249,0.21036 0.46875,0.34375 L 538.375,242.25 l -0.84375,-0.46875 c -0.18678,-0.10784 -0.35623,-0.25984 -0.5,-0.40625 l -40,-23.09375 -31.59375,18.25 c -1.10566,0.63835 -2.51791,0.2619 -3.15625,-0.84375 -0.63835,-1.10565 -0.26191,-2.5179 0.84375,-3.15625 l 29.3125,-16.90625 -28.5,-16.46875 c -1.10566,-0.63835 -1.4821,-2.0506 -0.84375,-3.15625 0.63834,-1.10565 2.01934,-1.4821 3.125,-0.84375 l 28.15625,16.25 0,-34.8125 c 0,-1.2767 1.0358,-2.3125 2.3125,-2.3125 1.2767,0 2.3125,1.0358 2.3125,2.3125 l 0,36.875 c 0,0.19668 -0.0478,0.38048 -0.0937,0.5625 l 41.5625,24 0,-47.84375 -30.875,-17.8125 c -1.10565,-0.63835 -1.4821,-2.0506 -0.84375,-3.15625 0.63835,-1.10565 2.0506,-1.4821 3.15625,-0.84375 l 28.5625,16.5 0,-12.25 c -14.67116,-10.81256 -33.22819,-16.66246 -48.5625,-21.21875 -16.08782,-4.78018 -31.61107,-18.3989 -26.34375,-27.59375 5.26732,-9.19484 21.82895,-10.56116 44.125,0 22.88874,10.84189 29.62284,29.56198 30.28125,30.21875 0.6584,0.65678 27,-74.21875 27,-74.21875 -8.92976,-3.817495 -57.4015,-16.881511 -104.71875,-16.5 z m 82.8125,113 0,9 5.8125,-3.34375 c -1.81285,-2.02044 -3.77036,-3.88453 -5.8125,-5.65625 z m 8.78125,9.25 -7.5,4.34375 c -0.40481,0.2337 -0.84868,0.3368 -1.28125,0.3125 l 0,48.28125 20.53125,-11.84375 c 0.0197,-0.56737 0.0474,-1.11459 0.0625,-1.6875 0.44172,-16.74338 -4.24229,-29.50376 -11.8125,-39.40625 z m 11.46875,46.5625 -17.65625,10.1875 15.0625,8.6875 c 1.33517,-5.8483 2.15735,-12.16604 2.59375,-18.875 z m -20.25,14 0,1.8125 c 0,0.22747 -0.033,0.44899 -0.0937,0.65625 l 0,34.40625 c 8.21234,-7.36639 13.3942,-16.53649 16.53125,-27.375 l -16.4375,-9.5 z m -4.71875,0.40625 -0.84375,0.5 c -0.21646,0.12496 -0.42494,0.2007 -0.65625,0.25 l -39.90625,23.0625 0,31.40625 c 18.12365,-2.83607 31.55259,-7.88628 41.40625,-15 l 0,-40.21875 z"
         style="fill:#5785d1;fill-opacity:1;stroke:none" />
      <path
         id="path2823"
         transform="translate(-74.666885,202.16507)"
         d="m 244.5,63.3125 0,46.8125 42.15625,-24.34375 0,-19.71875 C 273.24823,64.332976 258.84148,63.211259 244.5,63.3125 z m -4.84375,0.0625 c -14.0364,0.378417 -28.20571,2.685972 -41.21875,6.875 l 0,14.84375 c 0,0.19668 -0.0479,0.38048 -0.0937,0.5625 l 41.5625,24 0,-46.28125 c -0.0829,0.0021 -0.16715,-0.0022 -0.25,0 z m 51.59375,3.3125 0,16.4375 22,-12.6875 c -6.77192,-1.348425 -14.16168,-2.641932 -22,-3.75 z m 28.625,5.125 c -0.15415,0.166983 -0.32394,0.317809 -0.53125,0.4375 l -26.15625,15.09375 30.90625,17.84375 c 1.10564,0.63835 1.48208,2.0506 0.84375,3.15625 -0.63835,1.10565 -2.05061,1.4821 -3.15625,0.84375 L 289.84375,90.75 c -0.40102,-0.23153 -0.6795,-0.58655 -0.875,-0.96875 l -41.875,24.15625 7.21875,4.15625 c 8.01001,-3.34422 21.17952,-1.9527 37.375,5.71875 4.23681,2.00688 7.93097,4.27442 11.125,6.65625 l 17.34375,-10 c 1.10564,-0.63835 2.48665,-0.2619 3.125,0.84375 0.63833,1.10565 0.26189,2.48665 -0.84375,3.125 l -15.8125,9.125 c 11.07464,9.70429 14.85939,19.9856 15.34375,20.46875 0.6584,0.65678 27,-74.21875 27,-74.21875 -3.73812,-1.598057 -14.48167,-4.826087 -29.09375,-8 z m -126.0625,0.03125 c -3.85578,1.409971 -7.58414,2.987343 -11.15625,4.75 l 11.15625,6.4375 0,-11.1875 z m -16,7.28125 c -20.50731,11.559792 -34.63553,29.49066 -34.28125,53.875 0.59155,40.71572 26.35305,63.05463 52.03125,72.90625 25.67819,9.85161 41.47524,19.05725 39.5,25.625 -1.97525,6.56774 -3.11442,16.87398 -29.625,11.15625 C 181.07613,237.4333 160,206.5625 160,206.5625 l -26.34375,78.8125 c 0,0 28.88853,19.70448 110.625,19.0625 83.61871,-0.65678 102.05816,-29.55389 103.375,-79.46875 1.08453,-41.10952 -28.65774,-58.15739 -56.46875,-68.03125 l 0,23.46875 c 0,1.2767 -1.00455,2.28125 -2.28125,2.28125 -1.2767,0 -2.3125,-1.00455 -2.3125,-2.28125 l 0,-25.0625 c -4.36857,-1.45064 -8.63854,-2.73443 -12.6875,-3.9375 -16.08782,-4.78018 -31.61107,-18.3989 -26.34375,-27.59375 0.62917,-1.0983 1.4333,-2.06958 2.375,-2.9375 l -5.4375,-3.125 0,1.8125 c 0,0.22747 -0.0329,0.44899 -0.0937,0.65625 l 0,46.15625 31.5937,18.25 c 1.10564,0.63835 1.48208,2.01935 0.84375,3.125 -0.63835,1.10565 -2.05061,1.4821 -3.15625,0.84375 l -29.28125,-16.875 0,32.875 c 0,1.2767 -1.0358,2.3125 -2.3125,2.3125 -1.2767,0 -2.3125,-1.0358 -2.3125,-2.3125 l 0,-32.5 L 209.625,189.5 c -1.10566,0.63835 -2.51791,0.2619 -3.15625,-0.84375 -0.63835,-1.10565 -0.26191,-2.48665 0.84375,-3.125 l 31.9375,-18.4375 c 0.16818,-0.0971 0.35298,-0.16765 0.53125,-0.21875 l 0,-48.71875 -0.84375,0.5 c -0.21646,0.12496 -0.42494,0.2007 -0.65625,0.25 l -39.90625,23.0625 0,36.5 c 0,1.2767 -1.0358,2.28125 -2.3125,2.28125 -1.2767,0 -2.3125,-1.00455 -2.3125,-2.28125 l 0,-33.84375 -28.5,16.46875 c -1.10566,0.63835 -2.51791,0.2619 -3.15625,-0.84375 -0.63835,-1.10565 -0.26191,-2.5179 0.84375,-3.15625 l 28.1875,-16.25 -30.1875,-17.4375 c -1.10566,-0.63835 -1.4821,-2.01935 -0.84375,-3.125 0.63834,-1.10565 2.05059,-1.4821 3.15625,-0.84375 l 31.90625,18.4375 c 0.17309,0.0999 0.33249,0.21036 0.46875,0.34375 l 42.1875,-24.34375 -0.84375,-0.46875 c -0.18678,-0.10784 -0.35623,-0.25984 -0.5,-0.40625 l -40,-23.09375 -31.59375,18.25 c -1.10566,0.63835 -2.51791,0.2619 -3.15625,-0.84375 -0.63835,-1.10565 -0.26191,-2.5179 0.84375,-3.15625 L 191.875,87.25 177.8125,79.125 z"
         style="fill:#5785d1;fill-opacity:1;stroke:none" />
    </g>
    <path
       style="fill:#f40000;fill-opacity:1;fill-rule:nonzero;stroke:none"
       d=""
       id="path3958" />
  </g>
</svg>
